<?xml version="1.0" encoding="utf-8"?>
<!-- Svg Vector Icons : http://www.onlinewebfonts.com/icon -->
<!DOCTYPE svg PUBLIC "-//W3C//DTD SVG 1.1//EN" "http://www.w3.org/Graphics/SVG/1.1/DTD/svg11.dtd">
<svg version="1.1" xmlns="http://www.w3.org/2000/svg" xmlns:xlink="http://www.w3.org/1999/xlink" x="0px" y="0px" viewBox="0 0 1000 1000" enable-background="new 0 0 1000 1000" xml:space="preserve">
<metadata> Svg Vector Icons : http://www.onlinewebfonts.com/icon </metadata>
<g><path d="M500,10C229.4,10,10,229.4,10,500c0,270.6,219.4,490,490,490c270.6,0,490-219.4,490-490C990,229.4,770.6,10,500,10z M779.5,775.7C779.5,775.8,779.5,775.8,779.5,775.7c-124.4,131.9-288.8,116-288.8,116v0.3c-117,0.3-224-76.7-223.5-76.2c-90.6-62-133.5-174.2-134-175.3c-0.2-0.7-0.3-1.4-0.5-2c-4.5-11.5-28.9-75.6-25.4-114.8c-0.1-0.8-0.1-1.3-0.1-1.3s-6.9-121.3,49.3-212.9c0,0,53-120.2,205.5-176.9c0,0,125.1-59.2,286.8,4.8c0,0,145.8,54.4,207.7,196.6c42.5,86.2,36.1,191.1,36.1,191.1S885.1,680.4,779.5,775.7z"/><path d="M255.7,456.7c0-0.1,0.1-0.1,0.1-0.1C255.8,456.6,255.8,456.7,255.7,456.7z"/><path d="M254.2,458.9c0.1-0.2,0.2-0.4,0.4-0.5C254.5,458.6,254.3,458.7,254.2,458.9z"/><path d="M254.7,458.2c0.4-0.6,0.8-1.1,1-1.5C255.5,457.1,255.1,457.6,254.7,458.2z"/><path d="M178.7,590.3c-0.4,0-0.9,0.1-1.4,0.1C177.8,590.4,178.3,590.3,178.7,590.3z"/><path d="M134.3,588.1c-0.4-0.1-0.8-0.2-1.2-0.3C133.5,587.9,133.9,588,134.3,588.1z"/><path d="M137.5,588.8c-0.5-0.1-0.9-0.2-1.4-0.3C136.6,588.6,137,588.7,137.5,588.8z"/><path d="M143.7,589.8c-0.5-0.1-1-0.2-1.5-0.2C142.7,589.7,143.2,589.8,143.7,589.8z"/><path d="M146.7,590.2c-0.5-0.1-1-0.1-1.5-0.2C145.6,590.1,146.2,590.2,146.7,590.2z"/><path d="M140.6,589.4c-0.5-0.1-1-0.2-1.5-0.3C139.6,589.2,140.1,589.3,140.6,589.4z"/><path d="M191.4,588.4c-0.4,0.1-0.9,0.2-1.3,0.2C190.6,588.6,191,588.5,191.4,588.4z"/><path d="M180.9,590c-0.4,0.1-0.9,0.1-1.3,0.2C180,590.1,180.5,590.1,180.9,590z"/><path d="M176.4,590.5c-0.5,0-0.9,0.1-1.4,0.1C175.5,590.6,176,590.6,176.4,590.5z"/><path d="M186.6,589.3c-1.6,0.2-3.2,0.5-5,0.7C183.4,589.7,185.1,589.5,186.6,589.3z"/><path d="M189.8,588.7c-0.4,0.1-0.9,0.2-1.3,0.2C188.9,588.9,189.4,588.8,189.8,588.7z"/><path d="M174.1,590.7c-0.5,0-1,0.1-1.5,0.1C173.1,590.8,173.6,590.7,174.1,590.7z"/><path d="M188.1,589c-0.5,0.1-0.9,0.2-1.4,0.2C187.2,589.2,187.7,589.1,188.1,589z"/><path d="M151.4,590.7c-1.1-0.1-2.2-0.2-3.3-0.3C149.2,590.5,150.3,590.6,151.4,590.7z"/><path d="M156.8,591c-0.5,0-1.1,0-1.6-0.1C155.8,591,156.3,591,156.8,591z"/><path d="M159.6,591.1c-0.5,0-1.1,0-1.6,0C158.6,591.1,159.1,591.1,159.6,591.1z"/><path d="M154,590.9c-0.6,0-1.1-0.1-1.7-0.1C152.9,590.8,153.4,590.9,154,590.9z"/><path d="M162.4,591.1c-0.5,0-1.1,0-1.6,0C161.4,591.1,161.9,591.1,162.4,591.1z"/><path d="M171.7,590.9c-1.8,0.1-3.7,0.2-5.6,0.2C168,591.1,169.9,591,171.7,590.9z"/><path d="M165.1,591.1c-0.5,0-1.1,0-1.6,0C164.1,591.1,164.6,591.1,165.1,591.1z"/><path d="M646.3,200.2C646.3,200.2,646.3,200.2,646.3,200.2C646.3,200.2,646.3,200.2,646.3,200.2C646.3,200.2,646.3,200.2,646.3,200.2z"/><path d="M882.3,522.7l10.3,2.4C892.7,525.1,882,521.5,882.3,522.7z"/><path d="M130,587c-18.5-20.4-22.1-56.1-22.7-63.3c-3.5,39.2,20.8,103.3,25.4,114.8C127,613.6,130,587,130,587z"/><path d="M645.6,199.8c0,0,0.3,0.2,0.6,0.4C645.9,199.9,645.6,199.8,645.6,199.8z"/><path d="M858.7,329.5l-13.9,19.9c0.7,2,1.4,3.9,2.1,5.8c0.1,0.2,0.1,0.4,0.2,0.6c0.6,1.7,1.2,3.4,1.8,5c0.1,0.4,0.2,0.7,0.4,1c0.5,1.5,1.1,3,1.6,4.5c0.1,0.4,0.3,0.7,0.4,1.1c0.5,1.5,1,2.9,1.5,4.3c0.1,0.4,0.3,0.8,0.4,1.1c0.5,1.4,1,2.8,1.4,4.2c0.1,0.4,0.3,0.8,0.4,1.1c0.5,1.4,0.9,2.7,1.4,4.1c0.1,0.4,0.2,0.7,0.4,1.1c0.4,1.3,0.9,2.7,1.3,4c0.1,0.4,0.2,0.7,0.4,1.1c0.4,1.3,0.9,2.6,1.3,3.9c0.1,0.3,0.2,0.7,0.3,1c0.4,1.3,0.8,2.6,1.2,3.8c0.1,0.4,0.2,0.7,0.3,1.1c0.4,1.2,0.8,2.5,1.2,3.7c0.1,0.3,0.2,0.7,0.3,1c0.4,1.2,0.8,2.4,1.1,3.6c0.1,0.3,0.2,0.7,0.3,1c0.4,1.2,0.7,2.4,1.1,3.5c0.1,0.3,0.2,0.6,0.3,0.9c0.3,1.2,0.7,2.3,1,3.5c0.1,0.3,0.2,0.6,0.3,0.9c0.3,1.2,0.7,2.3,1,3.4c0.1,0.3,0.2,0.6,0.2,0.9c0.3,1.1,0.6,2.3,0.9,3.4c0.1,0.3,0.1,0.5,0.2,0.8c0.3,1.1,0.6,2.2,0.9,3.3c0.1,0.3,0.1,0.5,0.2,0.8c0.3,1.1,0.6,2.1,0.9,3.2c0.1,0.3,0.1,0.5,0.2,0.8c0.3,1.1,0.6,2.1,0.8,3.1c0.1,0.2,0.1,0.5,0.2,0.7c0.3,1,0.5,2.1,0.8,3.1c0.1,0.2,0.1,0.4,0.2,0.6c0.3,1,0.5,2,0.8,3c0.1,0.2,0.1,0.4,0.2,0.6c0.2,1,0.5,2,0.7,3c0,0.2,0.1,0.4,0.1,0.6c0.2,1,0.5,2,0.7,2.9c0,0.2,0.1,0.3,0.1,0.5c0.2,1,0.4,1.9,0.6,2.9c0,0.2,0.1,0.3,0.1,0.5c0.2,0.9,0.4,1.9,0.6,2.8c0,0.1,0.1,0.3,0.1,0.4c0.2,0.9,0.4,1.9,0.6,2.8c0,0.1,0.1,0.2,0.1,0.4c0.2,0.9,0.4,1.8,0.6,2.7c0,0.1,0,0.2,0.1,0.3c0.2,0.9,0.4,1.8,0.5,2.7c0,0.1,0,0.2,0.1,0.3c0.2,0.9,0.3,1.8,0.5,2.6c0,0.1,0,0.1,0,0.2c0.2,0.9,0.3,1.8,0.5,2.6c0,0,0,0.1,0,0.1c0.2,0.9,0.3,1.7,0.5,2.6c0,0,0,0,0,0.1c0.1,0.9,0.3,1.7,0.4,2.6l0,0c4.3,26.9,2.8,38.3,2.6,39.3c0.1,0.4,0.3,0.9,0.4,1.3c-0.4-1.2,10.3,2.4,10.3,2.4S901.2,415.7,858.7,329.5z"/><path d="M779.5,775.7C779.5,775.7,779.4,775.7,779.5,775.7C779.5,775.8,779.5,775.8,779.5,775.7z"/><path d="M334.5,821.7c0,0-28.1,9.5-67.3-5.8c-0.5-0.5,106.4,76.5,223.5,76.2v-0.3v-17.9C393.9,864.3,334.5,822.2,334.5,821.7z"/><path d="M130.2,587.1c0-0.2,0-0.3,0-0.3c-20.7-22.8-22.8-64.6-22.8-64.6c-0.1,0.5-0.1,1-0.1,1.5c0.6,7.2,4.2,42.9,22.7,63.3C130.1,587.1,130.2,587.1,130.2,587.1z"/><path d="M254,459.2c0.1-0.1,0.1-0.2,0.2-0.3C254.2,459,254.1,459.1,254,459.2z"/><path d="M255.7,456.8C255.7,456.8,255.7,456.8,255.7,456.8C255.7,456.8,255.7,456.8,255.7,456.8z"/><path d="M254.6,458.4c0-0.1,0.1-0.1,0.1-0.2C254.6,458.3,254.6,458.4,254.6,458.4z"/><path d="M200,584.4c0-0.4,0-0.9,0-1.3C200,583.6,200,584,200,584.4z"/><path d="M177.4,590.4c-0.3,0-0.6,0.1-0.9,0.1C176.7,590.5,177,590.5,177.4,590.4z"/><path d="M152.3,590.8c-0.3,0-0.7-0.1-1-0.1C151.7,590.7,152,590.8,152.3,590.8z"/><path d="M148.1,590.4c-0.5,0-0.9-0.1-1.4-0.1C147.1,590.3,147.6,590.3,148.1,590.4z"/><path d="M175,590.6c-0.3,0-0.6,0-1,0.1C174.4,590.7,174.7,590.7,175,590.6z"/><path d="M145.1,590c-0.5-0.1-1-0.1-1.5-0.2C144.2,589.9,144.6,590,145.1,590z"/><path d="M179.6,590.2c-0.3,0-0.6,0.1-0.9,0.1C179,590.3,179.3,590.2,179.6,590.2z"/><path d="M155.2,591c-0.4,0-0.8,0-1.2-0.1C154.4,590.9,154.8,590.9,155.2,591z"/><path d="M181.6,590c-0.2,0-0.5,0.1-0.7,0.1C181.2,590,181.4,590,181.6,590z"/><path d="M166.1,591.1c-0.3,0-0.7,0-1,0C165.4,591.1,165.8,591.1,166.1,591.1z"/><path d="M160.8,591.1c-0.4,0-0.8,0-1.2,0C160,591.1,160.4,591.1,160.8,591.1z"/><path d="M158,591.1c-0.4,0-0.8,0-1.2,0C157.2,591,157.6,591.1,158,591.1z"/><path d="M172.6,590.8c-0.3,0-0.6,0-0.9,0.1C172,590.9,172.3,590.8,172.6,590.8z"/><path d="M130.2,587.1c0.9,0.3,1.9,0.5,2.8,0.7C132.1,587.6,131.2,587.4,130.2,587.1L130.2,587.1z"/><path d="M142.2,589.6c-0.5-0.1-1-0.2-1.5-0.2C141.1,589.5,141.6,589.5,142.2,589.6z"/><path d="M136.1,588.5c-0.6-0.1-1.2-0.3-1.8-0.4C134.9,588.2,135.5,588.4,136.1,588.5z"/><path d="M190.1,588.7c-0.1,0-0.2,0-0.3,0.1C189.9,588.7,190,588.7,190.1,588.7z"/><path d="M163.5,591.1c-0.4,0-0.7,0-1.1,0C162.8,591.1,163.2,591.1,163.5,591.1z"/><path d="M191.5,588.4C191.5,588.4,191.5,588.4,191.5,588.4C191.5,588.4,191.5,588.4,191.5,588.4z"/><path d="M186.7,589.3C186.7,589.3,186.7,589.3,186.7,589.3C186.7,589.3,186.7,589.3,186.7,589.3z"/><path d="M139.1,589.1c-0.5-0.1-1.1-0.2-1.6-0.3C138.1,588.9,138.6,589,139.1,589.1z"/><path d="M188.5,589c-0.1,0-0.2,0-0.3,0.1C188.3,589,188.4,589,188.5,589z"/><path d="M130,587c0.1,0,0.1,0,0.2,0.1l0,0C130.2,587.1,130.1,587.1,130,587z"/><path d="M505,231.9C505,231.9,505,231.9,505,231.9c-0.5,0.3-0.8,0.4-0.8,0.4S504.5,232.2,505,231.9z"/><path d="M129.2,585.6c0,0,39.1,11.6,70.8-2.5c0.6-1.8,1.2,4.3,1.2,4.3s-33.3,13.1-72.4,3.7c-8-3.2-7.5-4.1-7.5-4.1l2.1-4.4L129.2,585.6z"/><path d="M531.5,366.4L386,495.9l6.3,3.4l150.1-136.5l-7.4-3.1L531.5,366.4z"/><path d="M671.1,418.4c0,0,36.2,66.5,50.7,174.8c6.2,15.4,4.7,12.2,4.7,12.2s0.4-72.7-50.8-187.3"/><path d="M615.2,706.4c0,0-89.4-9.2-204.9-67.7c-19.2-4.3-15.1-3.6-15.1-3.6s70.9,49.2,217.3,76"/><path d="M889.1,501.6c0,0-22.7,72.3-90.7,157.8c-6.8,15.1-5.5,11.8-5.5,11.8s52.6-50.2,99.6-166.6"/><path d="M641.2,793.8c0,0-59.1,47.3-163.2,80.5c-14.1,8.8-11.2,6.7-11.2,6.7s71.7-12.3,175.5-82.8"/><path d="M233.8,309.5c0,0-4.8,91.2,20.2,149.7c4.9,5.8,4.9,5.8,4.9,5.8s-27.1-58.6-22.1-165.7C240,232.6,233.8,309.5,233.8,309.5z"/><path d="M505,230.7c0,0-98.7-38.3-171-36.4c-8,2.5-8,2.5-8,2.5s73.1-3.9,189.3,40.5C587.6,265,505,230.7,505,230.7z"/><path d="M646.3,206.5c0,0,26.1-61.9,15.9-107.5c-3.3-5.4-3.3-5.4-3.3-5.4S671,140,642,206.3C623.9,247.6,646.3,206.5,646.3,206.5z"/><path d="M753.3,740.8c0,0,30.6,59.8,72,81.4c6.3,0.9,6.3,0.9,6.3,0.9s-43.3-20.6-75.2-85.4C736.3,697.2,753.3,740.8,753.3,740.8z"/><path d="M838.2,347.3c0,0-57.4-35-103.9-31.6c-5.8,2.5-5.8,2.5-5.8,2.5s47.6-5.2,108.9,33.4C875.5,375.5,838.2,347.3,838.2,347.3z"/><path d="M302.3,708.5c0,0,2.5,76.6,34.8,118.9c6,4,6,4,6,4s-34.7-42.2-36.2-124.7C306,655.3,302.3,708.5,302.3,708.5z"/><path d="M507.7,235.4c0,0,50.3-26.5,138.1-29.2c0.4,0.4,58.1,37.4,101.9,113.9c0.4,0.4-30,55.5-70.7,106.6c0,0.8-62.9-28.2-153.3-52.2C523.3,374.4,516.2,279.6,507.7,235.4z"/><path d="M252.7,452.9c0,0-59.2,84.1-58.7,136.2c0.6,1.1,36,94.1,108.5,132.3c37.6-5.5,135.6-62.5,135.6-62.5c-1.1-2.2-36-169.4-36-169.4S316.3,460.6,252.7,452.9z"/><path d="M720.7,591.5c0,0-16.8,21.1-46.7,49.5c0,0,0,0,0,0c-1.4,1.3-2.8,2.7-4.3,4.1c0,0-0.1,0.1-0.1,0.1c-1.5,1.4-2.9,2.7-4.5,4.1c0,0,0,0,0,0c-1.4,1.3-2.8,2.6-4.2,3.9c-0.2,0.2-0.5,0.4-0.7,0.7c-1.3,1.2-2.7,2.4-4,3.6c-0.4,0.3-0.7,0.7-1.1,1c-1.3,1.1-2.6,2.3-3.9,3.4c-0.4,0.4-0.9,0.8-1.3,1.2c-1.3,1.1-2.6,2.3-4,3.4c-0.5,0.4-1,0.8-1.4,1.2c-1.4,1.1-2.7,2.3-4.1,3.5c-0.5,0.4-0.9,0.8-1.4,1.2c-1.2,1-2.5,2.1-3.7,3.1c-0.6,0.5-1.1,0.9-1.7,1.4c-1.3,1-2.6,2.1-3.9,3.1c-0.5,0.4-0.9,0.8-1.4,1.1c-1.5,1.2-3,2.4-4.5,3.6c-0.5,0.4-1,0.8-1.5,1.2c-1.5,1.2-3.1,2.4-4.7,3.6c-0.5,0.4-1,0.7-1.5,1.1c-1.6,1.2-3.3,2.5-4.9,3.7c-0.4,0.3-0.8,0.6-1.3,0.9c-1.8,1.3-3.5,2.6-5.3,3.9c-0.3,0.2-0.6,0.4-0.8,0.6c-2,1.4-3.9,2.8-5.9,4.2l27.4,106c0,0,80.2,7.2,147-44.9c0,0,43.3-67.5,46.9-128.3C807.7,628.8,720.7,592.7,720.7,591.5z"/><path d="M233.8,309.5c0,0,55.6-83.7,130.6-112.5c0-0.4,0.8-31.8-2.4-64.4c-152.5,56.7-205.5,176.9-205.5,176.9S172.4,296.8,233.8,309.5z"/></g>
</svg>